<?xml version="1.0" encoding="utf-8"?>
<!-- Generator: Adobe Illustrator 23.0.1, SVG Export Plug-In . SVG Version: 6.00 Build 0)  -->
<svg version="1.1" id="Layer_1" xmlns="http://www.w3.org/2000/svg" xmlns:xlink="http://www.w3.org/1999/xlink" x="0px" y="0px"
	 viewBox="0 0 48 48" style="enable-background:new 0 0 48 48;" xml:space="preserve">
<style type="text/css">
	.st0{fill:#17696A;}
</style>
<path class="st0" d="M40.5,34.3c-1,0-1.9,0.8-1.9,1.9s0.8,1.9,1.9,1.9s1.9-0.8,1.9-1.9S41.5,34.3,40.5,34.3z"/>
<path class="st0" d="M39.6,26.8c-0.5,0-0.9,0.4-0.9,0.9s0.4,0.9,0.9,0.9s0.9-0.4,0.9-0.9S40.1,26.8,39.6,26.8z"/>
<path class="st0" d="M11.8,34.3c-1,0-1.9,0.8-1.9,1.9s0.8,1.9,1.9,1.9s1.9-0.8,1.9-1.9S12.8,34.3,11.8,34.3z"/>
<path class="st0" d="M44.1,23.1l-1.6-6.5c0.6-0.5,0.9-1.3,0.9-2c0-1.6-1.3-2.8-2.8-2.8H33V9c0-1.6-1.3-2.8-2.8-2.8H2.8
	C1.3,6.2,0,7.4,0,9v24.4c0,1.6,1.3,2.8,2.8,2.8h3.4c0,3.1,2.5,5.6,5.6,5.6c3.1,0,5.6-2.5,5.6-5.6h17.4c0,3.1,2.5,5.6,5.6,5.6
	s5.6-2.5,5.6-5.6c0-0.1,0-0.1,0-0.2c1.1-0.4,1.9-1.4,1.9-2.7v-5.6C48,25.4,46.3,23.5,44.1,23.1z M40.7,17.4l1.4,5.6h-7.8l2.1-2.1
	c0.4-0.4,0.4-1,0-1.3c-0.4-0.4-1-0.4-1.3,0L33,21.7v-4.3H40.7z M41.4,14.6c0,0.5-0.4,0.9-0.9,0.9H33v-1.9h7.5
	C41,13.7,41.4,14.1,41.4,14.6z M11.8,39.9c-2.1,0-3.8-1.7-3.8-3.8c0-2.1,1.7-3.8,3.8-3.8c2,0,3.8,1.7,3.8,3.8
	C15.6,38.3,13.9,39.9,11.8,39.9z M17.1,34.3c-0.8-2.2-2.9-3.8-5.3-3.8c-2.4,0-4.5,1.5-5.3,3.8H2.8c-0.5,0-0.9-0.4-0.9-0.9V9
	c0-0.5,0.4-0.9,0.9-0.9h27.4c0.5,0,0.9,0.4,0.9,0.9v25.3H17.1z M40.5,39.9c-2.1,0-3.8-1.7-3.8-3.8c0-2.1,1.7-3.8,3.8-3.8
	c2,0,3.8,1.7,3.8,3.8C44.2,38.3,42.6,39.9,40.5,39.9z M45.7,34.1c-0.8-2.1-2.9-3.6-5.2-3.6c-2.4,0-4.5,1.5-5.3,3.8H33v-9.4h10.3
	c1.2,0,2.3,0.8,2.7,1.9h-2.7c-0.5,0-0.9,0.4-0.9,0.9s0.4,0.9,0.9,0.9h2.8v4.7C46.1,33.7,46,34,45.7,34.1z"/>
<path class="st0" d="M16.5,11.8c-4.7,0-8.4,3.8-8.4,8.4s3.8,8.4,8.4,8.4s8.4-3.8,8.4-8.4S21.2,11.8,16.5,11.8z M16.5,26.8
	c-3.6,0-6.6-2.9-6.6-6.6s2.9-6.6,6.6-6.6s6.6,2.9,6.6,6.6S20.1,26.8,16.5,26.8z"/>
<path class="st0" d="M20.2,19.3h-2.8v-2.8c0-0.5-0.4-0.9-0.9-0.9c-0.5,0-0.9,0.4-0.9,0.9v3.8c0,0.5,0.4,0.9,0.9,0.9h3.8
	c0.5,0,0.9-0.4,0.9-0.9S20.8,19.3,20.2,19.3z"/>
</svg>
