<?xml version="1.0" encoding="utf-8"?>
<!-- Generator: Adobe Illustrator 23.0.1, SVG Export Plug-In . SVG Version: 6.00 Build 0)  -->
<svg version="1.1" id="Layer_1" xmlns="http://www.w3.org/2000/svg" xmlns:xlink="http://www.w3.org/1999/xlink" x="0px" y="0px"
	 viewBox="0 0 48 48" style="enable-background:new 0 0 48 48;" xml:space="preserve">
<style type="text/css">
	.st0{clip-path:url(#SVGID_2_);}
	.st1{fill:#17696A;}
</style>
<g>
	<defs>
		<rect id="SVGID_1_" x="0" width="47.9" height="48"/>
	</defs>
	<clipPath id="SVGID_2_">
		<use xlink:href="#SVGID_1_"  style="overflow:visible;"/>
	</clipPath>
	<g class="st0">
		<path class="st1" d="M24,27.3c0.5,0,0.9-0.4,0.9-0.9c0-0.5-0.4-0.9-0.9-0.9c-0.5,0-0.9,0.4-0.9,0.9C23.1,26.9,23.5,27.3,24,27.3z"
			/>
		<path class="st1" d="M23.5,47.7c0.2,0.1,0.4,0.2,0.5,0.2c0.2,0,0.4-0.1,0.5-0.2c9.6-6.8,19.1-9.8,19.1-23.9V6.5
			c0-0.5-0.4-0.9-0.9-0.9l-2.4-0.2C34.8,4.9,29.3,3.1,24.5,0c-0.3-0.2-0.7-0.2-1,0c-4.8,3-10.3,4.8-15.9,5.3L5.2,5.6
			C4.7,5.6,4.3,6,4.3,6.5v17.4C4.3,38.3,15.3,41.9,23.5,47.7z M6.2,7.4l1.6-0.1C13.5,6.8,19.1,4.9,24,1.9c4.9,3,10.5,4.8,16.2,5.3
			l1.6,0.1v16.5c0,12.7-8.4,15.4-17.8,21.9c-8.2-5.7-17.8-9-17.8-21.9V7.4z"/>
		<path class="st1" d="M23.5,40.9c0.3,0.2,0.8,0.2,1.1,0c8.5-5.9,13.5-7.8,13.5-17V11.6c0-0.5-0.3-0.9-0.8-0.9
			c-4.5-0.7-8.8-2.1-12.8-4.2c-0.3-0.1-0.6-0.1-0.9,0c-4,2.1-8.3,3.5-12.8,4.1c-0.5,0.1-0.8,0.5-0.8,0.9v12.3
			C9.9,33.2,15.4,35.5,23.5,40.9z M11.8,12.4c3.9-0.7,7.7-1.8,11.2-3.5v13.7c0,0.5,0.4,0.9,0.9,0.9c0.5,0,0.9-0.4,0.9-0.9V8.8
			c3.6,1.7,7.4,2.9,11.3,3.5v11.5c0,7.6-3.6,9.3-11.3,14.5v-8.3c0-0.5-0.4-0.9-0.9-0.9c-0.5,0-0.9,0.4-0.9,0.9v8.3
			c-7.2-4.8-11.2-6.8-11.2-14.5V12.4z"/>
	</g>
</g>
</svg>
