<?xml version="1.0" encoding="utf-8"?>
<!-- Generator: Adobe Illustrator 23.0.1, SVG Export Plug-In . SVG Version: 6.00 Build 0)  -->
<svg version="1.1" id="Layer_1" xmlns="http://www.w3.org/2000/svg" xmlns:xlink="http://www.w3.org/1999/xlink" x="0px" y="0px"
	 viewBox="0 0 48 48" style="enable-background:new 0 0 48 48;" xml:space="preserve">
<style type="text/css">
	.st0{fill:#17696A;}
</style>
<path class="st0" d="M24,33.4c-0.5,0-0.9,0.4-0.9,0.9s0.4,0.9,0.9,0.9s0.9-0.4,0.9-0.9S24.5,33.4,24,33.4z"/>
<path class="st0" d="M45.2,18.4h-3.4c0-3.1,0-11,0-14.1c0-1.6-1.3-2.8-2.8-2.8H2.8C1.3,1.5,0,2.8,0,4.3v22.5c0,1.6,1.3,2.8,2.8,2.8
	h3.4v14.1c0,1.6,1.3,2.8,2.8,2.8h36.2c1.6,0,2.8-1.3,2.8-2.8V21.2C48,19.6,46.7,18.4,45.2,18.4z M1.9,9h38.1v3.8H1.9V9z M2.8,3.4H39
	c0.5,0,0.9,0.4,0.9,0.9v2.8H1.9V4.3C1.9,3.8,2.3,3.4,2.8,3.4z M2.8,27.8c-0.5,0-0.9-0.4-0.9-0.9V14.6h38.1v3.8H9
	c-1.6,0-2.8,1.3-2.8,2.8v6.6H2.8z M46.1,43.7c0,0.5-0.4,0.9-0.9,0.9H9c-0.5,0-0.9-0.4-0.9-0.9V21.2c0-0.5,0.4-0.9,0.9-0.9h36.2
	c0.5,0,0.9,0.4,0.9,0.9V43.7z"/>
<path class="st0" d="M37.1,24c-1,0-2,0.3-2.8,0.9c-0.8-0.6-1.8-0.9-2.8-0.9c-2.6,0-4.7,2.1-4.7,4.7s2.1,4.7,4.7,4.7
	c1,0,2-0.3,2.8-0.9c0.8,0.6,1.8,0.9,2.8,0.9c2.6,0,4.7-2.1,4.7-4.7S39.7,24,37.1,24z M28.7,28.7c0-1.6,1.3-2.8,2.8-2.8
	c0.8,0,1.6,0.3,2.1,1c0,0,0,0,0,0c0.5,0.5,0.7,1.2,0.7,1.9s-0.2,1.3-0.7,1.9c-0.5,0.6-1.3,1-2.1,1C29.9,31.5,28.7,30.2,28.7,28.7z
	 M37.1,31.5c-0.6,0-1.1-0.2-1.6-0.5c0.4-0.7,0.6-1.5,0.6-2.3s-0.2-1.6-0.6-2.3c0.5-0.3,1-0.5,1.6-0.5c1.6,0,2.8,1.3,2.8,2.8
	S38.7,31.5,37.1,31.5z"/>
<path class="st0" d="M16.5,39h-3.8c-0.5,0-0.9,0.4-0.9,0.9s0.4,0.9,0.9,0.9h3.8c0.5,0,0.9-0.4,0.9-0.9S17,39,16.5,39z"/>
<path class="st0" d="M24,39h-3.8c-0.5,0-0.9,0.4-0.9,0.9s0.4,0.9,0.9,0.9H24c0.5,0,0.9-0.4,0.9-0.9S24.5,39,24,39z"/>
<path class="st0" d="M31.5,39h-3.8c-0.5,0-0.9,0.4-0.9,0.9s0.4,0.9,0.9,0.9h3.8c0.5,0,0.9-0.4,0.9-0.9S32,39,31.5,39z"/>
<path class="st0" d="M39,39h-3.8c-0.5,0-0.9,0.4-0.9,0.9s0.4,0.9,0.9,0.9H39c0.5,0,0.9-0.4,0.9-0.9S39.5,39,39,39z"/>
<path class="st0" d="M12.8,35.2h7.5c0.5,0,0.9-0.4,0.9-0.9s-0.4-0.9-0.9-0.9h-7.5c-0.5,0-0.9,0.4-0.9,0.9S12.2,35.2,12.8,35.2z"/>
</svg>
