<?xml version="1.0" encoding="utf-8"?>
<!-- Generator: Adobe Illustrator 23.0.1, SVG Export Plug-In . SVG Version: 6.00 Build 0)  -->
<svg version="1.1" id="Layer_1" xmlns="http://www.w3.org/2000/svg" xmlns:xlink="http://www.w3.org/1999/xlink" x="0px" y="0px"
	 viewBox="0 0 48 48" style="enable-background:new 0 0 48 48;" xml:space="preserve">
<style type="text/css">
	.st0{fill:#17696A;}
</style>
<path class="st0" d="M28.7,22.5c0.5,0,0.9-0.4,0.9-0.9s-0.4-0.9-0.9-0.9c-0.5,0-0.9,0.4-0.9,0.9S28.2,22.5,28.7,22.5z"/>
<path class="st0" d="M19.3,22.5c0.5,0,0.9-0.4,0.9-0.9s-0.4-0.9-0.9-0.9c-0.5,0-0.9,0.4-0.9,0.9S18.8,22.5,19.3,22.5z"/>
<path class="st0" d="M3.4,45v2.1c0,0.5,0.4,0.9,0.9,0.9h39.4c0.5,0,0.9-0.4,0.9-0.9V45c0-3.7-2.1-7.2-6-8.6c1.4-1.2,2.3-3,2.3-5
	c0-0.5-0.4-0.9-0.9-0.9c-2.3,0-4.2-1.6-4.6-3.7h2.7c1.5,0,2.8-1.3,2.8-2.8v-4.3c0-1.2-0.8-2.3-1.9-2.7v-2c0-8.3-6.7-15-15-15
	C15.7,0,9,6.7,9,15v2c-1.1,0.4-1.9,1.4-1.9,2.7V24c0,1.6,1.3,2.8,2.8,2.8h2.7c-0.5,2.1-2.4,3.7-4.6,3.7c-0.5,0-0.9,0.4-0.9,0.9
	c0,1.9,0.9,3.7,2.3,5C5.5,37.8,3.4,41.3,3.4,45z M39,32.3c-0.3,1.6-1.4,2.9-2.9,3.5l-5.7-0.7l-0.6-2.4c1.8-1.1,3.2-2.6,4.1-4.3
	C34.8,30.5,36.7,32,39,32.3z M31.5,16.9c-2.6,0-4.7-2.1-4.7-4.8c0-0.5-0.4-0.9-0.9-0.9c-0.5,0-0.9,0.4-0.9,0.9
	c0,2.6-2.1,4.8-4.7,4.8h-5.6c0-5.2,4.2-9.4,9.4-9.4c5.2,0,9.4,4.2,9.4,9.4H31.5z M14.6,18.8h5.6c2.4,0,4.5-1.3,5.6-3.2
	c1.2,1.9,3.2,3.2,5.6,3.2h1.9v4.3c0,3.5-2,6.7-5.1,8.4c-1.3,0.7-2.8,1-4.2,1c-1.5,0-2.9-0.3-4.2-1c-0.9-0.4-1.7-1-2.4-1.7
	c-1.8-1.8-2.7-4.1-2.7-6.6V18.8z M20,33.6c1.3,0.5,2.6,0.7,4,0.7c1.4,0,2.8-0.3,4.1-0.8l0.6,2.3c-0.3,2.3-2.3,4.1-4.6,4.1
	c-2.4,0-4.3-1.7-4.6-4.1L20,33.6z M39,24c0,0.5-0.4,0.9-0.9,0.9h-2.8v-6.2h2.8c0.5,0,0.9,0.4,0.9,0.9V24z M24,1.9
	c7.2,0,13.1,5.9,13.1,13.1v1.9h-1.9c0-6.2-5-11.2-11.2-11.2c-6.2,0-11.2,5-11.2,11.2h-1.9V15C10.9,7.7,16.7,1.9,24,1.9z M9,24v-4.3
	c0-0.5,0.4-0.9,0.9-0.9h2.8v6.2H9.9C9.4,24.9,9,24.5,9,24z M14.1,28.4c0.5,0.9,1.2,1.8,2,2.6c0.7,0.7,1.4,1.2,2.2,1.7l-0.6,2.4
	l-5.7,0.7c-1.5-0.6-2.6-1.9-2.9-3.5C11.3,32,13.2,30.4,14.1,28.4z M11.8,37.7l0.1,0h0c0,0,0,0,0,0l5.7-0.7c0.8,2.8,3.3,4.8,6.3,4.8
	s5.6-2,6.3-4.8c0.3,0-1.5-0.2,5.8,0.8c4.1,0.5,6.6,3.6,6.6,7.3v1.1H5.2V45C5.2,41.4,7.7,38.3,11.8,37.7z"/>
<path class="st0" d="M21.5,28.9c0.8,0.4,1.6,0.6,2.5,0.6c0.9,0,1.7-0.2,2.5-0.5c0.5-0.2,0.7-0.8,0.5-1.2c-0.2-0.5-0.8-0.7-1.2-0.5
	c-0.5,0.2-1.1,0.4-1.7,0.4c-0.6,0-1.2-0.1-1.7-0.4c-0.5-0.2-1,0-1.2,0.4C20.8,28.2,21,28.7,21.5,28.9z"/>
<path class="st0" d="M32.4,43.7h3.8c0.5,0,0.9-0.4,0.9-0.9s-0.4-0.9-0.9-0.9h-3.8c-0.5,0-0.9,0.4-0.9,0.9S31.9,43.7,32.4,43.7z"/>
<path class="st0" d="M39.9,41.8c0.5,0,0.9,0.4,0.9,0.9s-0.4,0.9-0.9,0.9S39,43.3,39,42.8S39.4,41.8,39.9,41.8z"/>
</svg>
